<?xml version="1.0" standalone="no"?>
<!DOCTYPE svg PUBLIC "-//W3C//DTD SVG 20010904//EN"
 "http://www.w3.org/TR/2001/REC-SVG-20010904/DTD/svg10.dtd">
<svg version="1.0" xmlns="http://www.w3.org/2000/svg"
 width="181.000000pt" height="250.000000pt" viewBox="0 0 181.000000 250.000000"
 preserveAspectRatio="xMidYMid meet">

<g transform="translate(0.000000,250.000000) scale(0.100000,-0.100000)"
fill="#000000" stroke="none">
<path d="M794 2400 c-36 -14 -57 -56 -138 -270 -43 -113 -101 -259 -128 -325
-95 -227 -138 -455 -138 -728 -1 -166 -8 -212 -46 -293 -24 -51 -226 -326
-245 -332 -24 -9 -2 -36 88 -108 54 -43 146 -117 205 -166 59 -48 112 -88 119
-88 6 0 82 68 169 151 136 129 165 162 197 225 l39 74 28 -63 c24 -53 52 -86
194 -225 92 -89 172 -162 179 -162 8 0 91 64 186 143 95 78 184 152 199 162
15 11 27 27 28 35 0 8 -48 76 -105 150 -58 74 -122 168 -142 208 l-37 73 -7
222 c-11 302 -55 549 -124 687 -12 25 -68 165 -124 311 -57 146 -112 278 -124
293 -28 35 -94 46 -128 23 -19 -14 -25 -14 -50 -1 -31 16 -63 17 -95 4z m84
-53 c19 -15 15 -101 -18 -357 -40 -304 -33 -280 -76 -280 -29 0 -44 -8 -75
-39 l-39 -39 2 -293 c3 -254 5 -294 18 -294 13 0 16 41 20 285 3 157 9 291 13
298 5 6 22 19 38 28 39 20 82 10 109 -24 20 -25 21 -35 18 -526 l-3 -501 -29
-75 c-28 -70 -39 -85 -185 -232 -85 -87 -158 -158 -162 -158 -7 0 -315 244
-348 275 -11 11 4 36 93 154 115 153 150 213 166 288 6 26 15 147 20 268 5
121 16 258 24 305 20 107 63 264 87 311 15 31 158 390 220 555 25 67 63 85
107 51z m150 5 c7 -5 59 -130 116 -278 57 -148 114 -291 126 -319 77 -175 109
-344 119 -640 12 -312 16 -327 184 -544 49 -64 94 -121 99 -128 7 -8 -42 -54
-166 -157 -96 -80 -178 -146 -182 -146 -16 0 -282 268 -312 314 -18 28 -42 80
-52 115 -19 59 -20 94 -20 555 0 481 0 493 20 514 11 12 32 25 45 28 32 8 82
-12 98 -40 8 -14 14 -108 17 -301 4 -240 7 -280 20 -280 13 0 15 39 18 280 1
186 -1 289 -9 307 -17 42 -56 71 -102 77 l-42 6 -32 240 c-34 257 -41 373 -21
393 14 14 57 16 76 4z m-89 -501 c11 -85 19 -155 18 -156 -1 0 -12 -8 -24 -18
-21 -18 -22 -18 -42 2 l-21 21 20 158 c11 86 20 162 21 167 2 18 8 -18 28
-174z"/>
</g>
</svg>
